<?xml version="1.0" standalone="no"?>
<!DOCTYPE svg PUBLIC "-//W3C//DTD SVG 20010904//EN"
 "http://www.w3.org/TR/2001/REC-SVG-20010904/DTD/svg10.dtd">
<svg version="1.0" xmlns="http://www.w3.org/2000/svg"
 width="1888.000000pt" height="2238.000000pt" viewBox="0 0 1888.000000 2238.000000"
 preserveAspectRatio="xMidYMid meet">
<metadata>
Created by potrace 1.16, written by Peter Selinger 2001-2019
</metadata>
<g transform="translate(0.000000,2238.000000) scale(0.100000,-0.100000)"
fill="#000000" stroke="none">
<path d="M9085 21094 c-378 -39 -697 -127 -942 -260 -112 -61 -276 -171 -348
-234 -172 -150 -378 -401 -570 -695 -127 -196 -236 -356 -313 -464 -220 -306
-404 -468 -591 -516 -93 -24 -106 -14 -31 24 183 93 359 271 548 552 82 122
214 341 208 346 -2 2 -55 -16 -117 -40 -281 -109 -441 -205 -611 -367 -60 -56
-108 -105 -108 -109 0 -4 12 -14 28 -23 15 -10 42 -31 60 -49 39 -36 31 -49
-30 -49 -27 0 -38 -4 -38 -15 0 -12 -13 -15 -60 -15 -76 0 -90 -15 -170 -175
-86 -173 -86 -167 -3 -206 37 -17 149 -71 248 -119 292 -142 414 -187 624
-230 106 -21 356 -56 499 -69 51 -4 95 -11 98 -13 14 -15 -18 -44 -89 -79 -44
-22 -154 -90 -245 -151 -269 -181 -349 -213 -534 -213 l-118 1 28 -23 c78 -64
254 -123 368 -123 l46 0 -70 -74 c-148 -159 -241 -324 -311 -553 -48 -158 -64
-197 -97 -240 -36 -48 -186 -143 -314 -198 -78 -35 -106 -51 -96 -57 8 -5 72
-9 143 -9 256 -1 402 66 643 297 60 57 113 104 119 104 16 0 23 -37 13 -72 -5
-18 -24 -58 -41 -88 -115 -201 -207 -418 -261 -620 -40 -149 -74 -341 -68
-382 3 -20 8 -15 30 27 43 83 116 173 176 215 30 22 61 40 67 40 9 0 3 -29
-17 -92 -48 -154 -95 -346 -114 -468 -22 -147 -22 -362 0 -499 22 -141 21
-145 -21 -193 -47 -51 -148 -101 -251 -123 -153 -33 -147 -26 -62 -67 41 -20
99 -41 128 -47 72 -15 197 -14 260 2 57 15 62 14 62 -18 0 -31 51 -205 84
-287 15 -36 50 -108 78 -160 l51 -93 6 -160 c6 -134 10 -166 26 -194 11 -19
25 -33 30 -33 6 1 12 63 16 149 3 82 7 149 7 150 1 2 27 -13 57 -33 60 -38
138 -69 196 -79 41 -6 43 -10 54 -165 8 -96 -3 -179 -34 -260 -34 -89 -31 -87
-95 -56 -31 15 -79 43 -107 62 -28 20 -53 33 -56 30 -11 -10 18 -99 43 -131
14 -18 40 -44 59 -57 19 -12 35 -26 35 -30 0 -18 -149 -78 -210 -85 l-65 -8
72 -32 c40 -18 92 -34 115 -36 72 -6 165 19 242 65 126 74 296 265 363 405 8
18 19 33 23 33 23 0 38 -247 21 -345 -15 -83 -61 -198 -102 -255 -17 -23 -28
-44 -26 -47 9 -8 97 35 140 69 52 40 92 82 165 172 l57 69 7 -35 c16 -77 19
-96 29 -179 9 -73 8 -96 -5 -141 -19 -65 -71 -137 -123 -169 l-37 -23 30 -13
c16 -6 34 -12 41 -13 25 -1 62 -62 76 -127 24 -104 31 -243 17 -302 -16 -68
-40 -96 -99 -116 -67 -22 -78 -49 -61 -150 16 -92 9 -182 -20 -257 -21 -57
-22 -58 -60 -58 -53 0 -100 -40 -100 -83 1 -18 9 -50 20 -72 11 -22 19 -48 20
-57 0 -23 -107 -182 -177 -261 -53 -60 -62 -66 -98 -66 -73 -2 -111 -52 -81
-109 14 -27 14 -27 -114 -152 -282 -275 -410 -496 -471 -813 -22 -110 -25
-118 -49 -123 -49 -10 -116 -37 -180 -72 -36 -19 -137 -73 -225 -119 -88 -47
-175 -96 -192 -109 -41 -31 -80 -97 -95 -162 l-12 -50 -71 -7 c-38 -3 -87 -8
-107 -11 -35 -5 -39 -3 -48 23 -41 111 -42 112 -450 389 -120 81 -176 99 -276
91 l-64 -5 -55 89 -55 89 25 38 c14 20 35 67 46 105 27 86 27 83 -72 497 -23
96 -51 195 -62 220 -28 60 -88 117 -153 147 l-54 25 1 126 0 127 43 18 c24 10
62 34 85 54 73 62 88 107 137 401 24 145 44 290 44 323 0 87 -31 158 -95 221
l-54 53 18 60 c10 33 24 86 31 117 13 55 15 58 49 64 52 10 141 44 173 66 45
31 87 102 130 216 143 387 158 432 158 485 0 81 -24 145 -78 212 l-48 61 37
99 c21 55 40 103 41 107 2 5 30 11 62 14 104 9 201 76 245 168 12 24 47 153
77 287 66 287 71 355 32 440 -28 62 -94 131 -149 156 l-38 18 -1 112 0 112 54
30 c30 17 70 49 89 70 40 45 77 135 77 190 0 94 -109 553 -144 609 -55 88
-152 142 -255 142 l-46 0 -39 93 c-36 87 -37 93 -22 117 46 74 60 116 60 190
1 88 -27 151 -91 211 -56 53 -394 286 -448 309 -60 26 -155 26 -211 1 -56 -25
-110 -75 -141 -130 -15 -25 -27 -47 -28 -49 -1 -1 -62 -5 -136 -8 l-134 -7
-14 38 c-19 55 -83 119 -144 146 -111 49 -226 25 -349 -75 -66 -53 -268 -193
-461 -320 -369 -244 -528 -487 -567 -872 -18 -177 9 -337 85 -489 42 -86 105
-176 90 -130 -3 11 -9 56 -12 100 -6 89 11 174 49 247 l22 43 11 -90 c18 -139
52 -222 160 -389 30 -47 55 -87 55 -89 0 -1 -18 -1 -39 1 -56 6 -145 -23 -188
-61 -73 -64 -330 -357 -353 -404 -35 -68 -35 -170 0 -232 14 -25 30 -46 35
-48 15 -5 72 94 99 170 26 75 23 71 189 254 115 126 176 177 193 160 3 -3 -6
-25 -20 -50 -31 -53 -33 -86 -5 -121 33 -42 90 -34 148 21 l26 23 3 -21 c5
-31 -48 -99 -232 -302 -120 -132 -154 -150 -115 -63 17 39 18 52 10 79 -22 65
-103 84 -148 34 -29 -32 -133 -201 -133 -215 0 -7 -11 -34 -24 -60 -29 -54
-71 -115 -62 -89 4 14 -1 17 -37 17 -212 -1 -357 -147 -345 -349 4 -76 51
-186 93 -219 24 -19 25 -20 8 -68 -9 -27 -17 -50 -18 -52 -2 -3 -382 61 -455
77 -71 15 -74 10 -66 -92 9 -119 22 -137 118 -167 106 -32 174 -57 255 -93 66
-29 71 -34 66 -57 -6 -28 -13 -55 -77 -280 -24 -85 -70 -252 -101 -370 -149
-562 -169 -618 -239 -655 -75 -41 -187 7 -277 119 -51 63 -109 165 -133 234
l-14 40 104 -6 c57 -2 104 -2 104 1 0 3 -30 45 -66 93 -73 98 -100 147 -136
249 -37 102 -57 196 -71 320 l-12 110 -58 -80 c-169 -238 -271 -569 -241 -789
7 -51 21 -57 50 -25 10 12 35 34 55 50 l36 28 22 -92 c27 -109 83 -247 140
-345 64 -109 145 -206 285 -337 73 -69 146 -148 172 -186 45 -69 97 -180 109
-236 3 -18 8 -33 10 -33 2 0 31 29 65 65 106 110 208 164 465 245 125 40 259
109 362 187 87 67 220 194 275 261 l34 44 35 -82 c19 -45 38 -83 42 -84 16 -2
108 228 137 344 42 166 44 412 5 563 -8 32 -15 60 -15 62 0 3 -4 5 -8 5 -4 0
-21 -26 -36 -57 -107 -219 -309 -415 -504 -492 l-45 -18 54 -25 c30 -13 76
-33 102 -43 26 -10 46 -23 44 -29 -9 -27 -170 -149 -247 -188 -81 -41 -90 -43
-172 -43 -104 0 -133 16 -162 91 -22 60 -21 69 65 524 33 173 81 425 106 560
25 135 48 248 52 251 9 9 217 -9 295 -26 90 -20 129 -19 154 3 23 19 92 137
92 157 0 14 -36 28 -303 116 -133 44 -187 65 -183 75 3 7 8 29 12 49 6 32 13
39 68 64 126 57 186 142 194 272 5 88 -11 151 -59 223 l-30 45 30 45 c17 25
36 48 41 51 6 4 38 8 73 10 70 4 121 22 166 60 17 15 95 101 173 192 166 194
157 195 165 -19 8 -202 -15 -324 -95 -488 -29 -60 -56 -95 -134 -173 -107
-106 -107 -107 27 -59 158 56 294 137 411 245 123 114 197 223 263 390 77 196
105 346 100 550 -4 152 -4 153 63 79 82 -91 129 -241 131 -424 1 -58 5 -104 9
-102 11 7 67 162 87 242 32 128 44 237 38 356 -13 258 -78 395 -354 733 -39
48 -67 90 -62 91 15 6 167 -46 233 -80 78 -39 122 -73 168 -131 69 -88 37 16
-40 130 -70 103 -136 159 -252 214 -58 28 -121 58 -140 67 -96 46 -145 141
-138 265 4 91 33 152 104 222 121 118 395 203 661 205 51 0 53 -1 72 -37 34
-66 131 -145 408 -331 64 -43 162 -76 210 -70 24 3 29 -4 64 -81 l37 -84 -39
-49 c-40 -51 -69 -128 -69 -185 0 -50 99 -502 122 -555 24 -56 96 -127 157
-154 l43 -19 -6 -59 c-3 -32 -6 -80 -6 -105 l0 -46 -51 -18 c-63 -23 -123 -76
-153 -136 -13 -25 -37 -109 -55 -186 -17 -77 -42 -189 -56 -250 -43 -190 -30
-272 61 -366 l35 -36 -41 -111 -42 -110 -66 -12 c-168 -29 -224 -92 -332 -375
-23 -60 -60 -157 -83 -215 -34 -89 -40 -117 -41 -185 -1 -68 3 -89 27 -139 16
-35 47 -77 74 -102 l46 -43 -29 -107 c-16 -59 -35 -113 -42 -121 -7 -7 -28
-13 -45 -13 -48 0 -147 -52 -189 -98 -72 -80 -73 -83 -133 -450 -41 -249 -43
-301 -13 -379 26 -71 103 -151 170 -179 l48 -19 0 -105 c0 -58 3 -114 6 -126
5 -17 -4 -26 -51 -50 -122 -61 -177 -146 -183 -284 -3 -75 4 -116 57 -353 63
-281 78 -322 143 -386 61 -60 122 -84 227 -91 l95 -5 62 -104 c63 -104 63
-104 45 -130 -52 -75 -67 -210 -35 -305 25 -72 89 -131 333 -305 188 -134 235
-162 287 -177 158 -42 332 38 391 182 20 49 19 48 180 60 87 6 92 5 103 -16
23 -43 85 -102 134 -128 45 -24 62 -27 146 -27 l95 0 130 68 c72 38 135 73
142 79 9 7 13 -1 18 -29 10 -68 34 -196 54 -292 16 -74 18 -105 10 -144 -34
-181 -165 -474 -292 -652 -116 -163 -311 -342 -379 -347 -13 -1 -55 13 -94 30
-95 42 -135 50 -299 57 -215 11 -310 42 -425 142 l-53 47 7 -49 c12 -80 49
-149 118 -218 35 -35 76 -73 93 -84 16 -12 28 -23 25 -25 -3 -2 -54 -28 -115
-58 -145 -71 -240 -162 -302 -290 -43 -88 -90 -227 -80 -237 4 -3 28 10 54 30
57 41 226 137 242 137 45 0 74 -315 51 -554 -20 -207 -102 -420 -229 -596 -33
-47 -61 -91 -61 -97 0 -19 93 21 172 73 79 53 151 131 199 215 61 107 61 107
55 -16 -7 -165 -39 -296 -112 -457 -20 -44 -34 -82 -31 -85 22 -21 218 140
310 255 l26 33 7 -26 c12 -49 -4 -106 -57 -198 -118 -206 -165 -317 -133 -317
7 0 15 4 18 8 3 5 36 21 75 36 38 16 93 48 122 72 110 90 134 39 59 -127 -52
-116 -70 -191 -70 -291 0 -97 17 -170 61 -265 l32 -68 9 50 c21 120 74 231
115 241 35 9 57 -3 122 -70 71 -72 129 -153 176 -246 53 -107 58 -131 59 -314
1 -190 8 -216 81 -316 74 -100 152 -130 366 -137 133 -5 161 -3 189 11 52 26
77 20 160 -39 138 -97 233 -127 335 -105 121 25 109 27 139 -26 39 -71 65
-152 72 -233 4 -39 10 -71 14 -71 12 0 78 102 105 163 36 77 50 180 35 250
-23 114 -104 237 -184 280 l-41 22 33 3 c47 5 134 -40 171 -87 33 -41 64 -107
75 -158 9 -39 24 -44 120 -45 85 0 100 3 179 39 l57 27 50 -49 c54 -53 113
-161 133 -244 6 -28 14 -51 18 -51 11 0 57 95 74 154 13 43 16 82 13 140 -8
131 -59 237 -173 356 -53 55 -73 90 -54 90 6 0 24 -14 40 -31 16 -17 29 -27
29 -21 0 5 -7 15 -15 22 -8 6 -35 50 -62 96 -57 102 -150 197 -209 213 -50 14
-59 14 -124 -3 -30 -8 -48 -10 -40 -4 8 5 33 20 55 34 22 14 31 23 20 20 -11
-3 -33 -8 -50 -12 l-30 -6 23 17 c41 30 129 56 170 49 89 -14 187 -126 243
-276 16 -46 37 -93 45 -106 8 -12 13 -26 10 -30 -3 -4 0 -14 6 -22 8 -12 9
-12 4 3 -11 35 11 15 51 -46 48 -73 70 -124 81 -187 7 -40 10 -45 32 -41 42 6
98 39 125 75 25 33 27 33 68 24 23 -5 57 -19 75 -30 43 -26 118 -127 133 -179
7 -21 16 -39 20 -39 13 0 39 100 46 175 13 159 -58 301 -201 400 -40 27 -59
49 -77 88 -36 79 -97 173 -130 201 -49 42 -102 51 -184 33 -38 -9 -79 -19 -90
-22 -14 -4 -31 4 -55 26 -97 86 -210 136 -281 125 -22 -4 -97 -36 -167 -71
-155 -80 -211 -89 -319 -57 -89 27 -162 76 -298 196 -136 121 -165 157 -221
274 -78 163 -209 512 -201 536 2 5 21 -7 43 -26 122 -110 297 -209 441 -250
98 -27 259 -30 348 -6 312 84 590 331 835 741 29 49 62 92 74 97 31 12 118 41
143 47 l22 5 -19 -63 c-49 -161 -171 -325 -303 -407 l-61 -37 57 -3 c70 -4
154 17 244 60 57 27 93 57 225 190 87 87 154 151 150 141 -4 -10 -17 -36 -28
-58 -33 -64 -73 -175 -89 -250 -30 -143 -8 -323 52 -424 l27 -46 12 135 c13
151 31 234 70 330 34 86 67 128 150 198 85 71 155 172 188 274 15 43 38 143
52 223 31 177 48 220 117 289 50 49 56 59 65 117 7 35 15 108 18 162 6 82 5
97 -8 97 -8 0 -50 -15 -94 -34 -43 -19 -80 -33 -82 -31 -4 4 15 136 21 141 2
2 39 -1 83 -7 140 -20 346 2 519 56 43 13 82 22 85 19 3 -3 5 -51 6 -107 0
-57 5 -102 10 -104 19 -6 55 45 69 98 8 30 15 79 15 111 l0 56 73 37 c165 85
325 203 480 354 86 84 110 102 118 91 23 -37 52 -130 56 -186 l5 -61 -36 -22
c-31 -19 -36 -28 -36 -59 0 -46 -30 -113 -75 -168 -19 -23 -35 -45 -35 -48 0
-13 38 -4 109 24 41 16 77 27 80 25 11 -12 -25 -127 -62 -200 -71 -136 -223
-273 -407 -365 -155 -78 -189 -116 -224 -253 -37 -140 -59 -183 -138 -260 -38
-38 -68 -70 -66 -72 2 -2 64 -8 138 -15 74 -7 151 -19 172 -27 49 -20 134
-112 176 -191 82 -154 122 -341 122 -573 0 -87 4 -159 9 -159 5 0 33 26 62 58
60 64 116 171 150 283 28 94 28 95 46 70 24 -35 51 -126 79 -264 55 -277 127
-421 290 -584 56 -57 106 -103 112 -103 6 0 5 17 -3 45 -40 130 -39 322 0 382
20 30 32 22 41 -25 7 -43 64 -186 92 -231 l19 -31 33 35 c18 19 48 40 66 45
80 27 191 -25 294 -136 104 -113 132 -196 145 -419 14 -269 69 -376 221 -435
80 -31 266 -38 461 -16 219 24 408 31 478 16 33 -6 103 -32 155 -57 140 -67
195 -84 296 -90 111 -7 177 11 251 67 l51 38 49 -28 c78 -45 135 -144 158
-274 l12 -71 35 55 c57 89 73 149 73 273 0 59 3 107 7 107 4 0 37 21 74 46 62
43 70 45 112 39 66 -10 122 -66 179 -182 31 -63 49 -89 55 -81 4 7 18 44 29
82 18 55 21 85 17 155 -3 47 -13 104 -22 125 -9 22 -14 41 -11 44 3 3 25 -4
49 -15 45 -22 101 -82 130 -141 10 -19 20 -32 22 -29 3 3 9 35 15 72 25 177
-50 338 -202 432 -45 27 -66 49 -90 92 -105 188 -196 245 -351 221 l-77 -12
-46 40 c-102 90 -182 96 -306 22 -189 -111 -242 -130 -365 -130 -320 0 -699
293 -1264 978 -161 195 -196 246 -260 377 -62 128 -88 217 -96 320 -8 97 5
163 49 250 39 79 199 238 336 335 101 71 200 159 304 267 49 53 99 115 94 119
-1 1 -159 -76 -351 -171 -285 -142 -357 -181 -395 -219 -50 -50 -134 -91 -382
-186 -187 -73 -349 -122 -318 -97 2 2 119 55 259 117 333 147 341 151 414 219
48 44 96 75 207 129 279 137 635 335 648 361 5 9 17 45 26 79 8 35 25 72 35
82 11 11 20 26 20 34 0 8 5 27 11 43 10 26 12 26 19 8 4 -11 13 -76 20 -145
11 -109 17 -136 51 -211 45 -100 64 -184 55 -251 -4 -27 -3 -48 2 -48 15 0 61
112 77 191 14 61 15 109 10 269 -6 173 4 389 20 438 4 9 18 3 47 -21 48 -38
190 -121 227 -132 24 -7 24 -7 -8 46 -95 161 -154 307 -189 468 -18 80 -18 92
-5 87 87 -34 202 -32 273 4 193 98 353 418 466 930 24 113 49 220 55 237 8 25
53 67 197 182 103 82 192 158 198 168 6 10 15 33 19 51 6 29 4 32 -18 32 -46
0 -102 -28 -257 -127 -85 -54 -184 -116 -220 -138 l-64 -39 -161 2 c-555 9
-1249 122 -1880 307 -339 100 -814 285 -1065 416 -132 70 -370 211 -370 220 0
9 204 141 407 263 159 96 162 97 200 87 255 -73 523 -73 741 -1 31 10 58 18
59 16 5 -5 21 -151 19 -171 -14 -119 -34 -219 -64 -313 -32 -102 -34 -114 -20
-129 14 -14 18 -13 34 6 11 12 34 36 52 53 36 35 62 107 62 172 0 23 9 77 19
121 26 106 31 166 23 245 l-7 65 84 52 c313 192 592 509 835 946 42 76 85 152
96 170 l20 32 -1 -60 c0 -33 -8 -116 -18 -183 -21 -149 -19 -203 9 -242 24
-34 40 -37 62 -12 15 16 20 47 34 197 3 39 8 72 9 75 2 3 11 87 20 185 23 260
47 302 199 355 74 25 93 25 106 1 15 -30 12 -79 -11 -167 -12 -43 -23 -88 -26
-99 -3 -12 18 5 49 40 164 185 350 315 450 315 80 -1 175 -19 253 -51 106 -42
133 -45 188 -21 53 23 77 55 84 112 5 34 -1 53 -37 123 -61 115 -74 190 -22
125 9 -12 38 -45 64 -72 37 -41 48 -62 56 -106 14 -76 26 -102 62 -143 33 -37
84 -60 133 -59 44 1 57 18 57 76 0 64 -27 110 -97 166 -57 45 -67 64 -30 55
62 -14 104 -24 123 -30 18 -6 22 -1 28 25 23 119 -14 208 -112 265 -18 11 -32
23 -32 27 0 4 26 8 58 8 67 0 121 -30 149 -83 36 -66 14 -201 -40 -245 -13
-11 -13 -19 -1 -59 8 -25 14 -68 14 -95 0 -54 28 -95 58 -83 80 31 211 26 437
-15 82 -14 132 -31 214 -69 59 -28 117 -51 129 -51 83 0 163 114 146 206 -9
49 -57 102 -100 110 -27 5 -43 1 -74 -20 -52 -34 -93 -34 -315 4 -191 32 -296
56 -333 74 -22 12 -22 12 -4 29 15 14 58 20 208 32 271 21 410 20 454 -4 116
-64 133 -65 220 -21 78 39 96 74 81 156 -19 103 -54 144 -122 144 -37 0 -56
-7 -95 -35 -89 -63 -88 -63 -365 -70 -139 -3 -279 -2 -309 2 -53 8 -55 9 -58
40 -3 29 1 34 35 48 98 42 491 136 573 137 19 0 57 -11 84 -26 57 -30 76 -32
122 -10 100 48 104 198 7 284 -39 34 -53 40 -90 40 -46 0 -54 -5 -114 -77 -20
-24 -47 -38 -125 -62 -120 -37 -331 -86 -433 -100 -87 -12 -111 -4 -103 34 5
30 35 47 218 124 144 60 219 81 295 81 l56 0 6 38 c17 104 -53 222 -130 222
-11 0 -63 -34 -114 -75 -149 -119 -331 -203 -415 -190 -22 3 -48 3 -57 -1 -24
-9 -22 -58 8 -148 24 -72 24 -79 9 -107 -9 -19 -31 -38 -57 -49 -46 -19 -107
-33 -107 -24 0 4 13 23 29 43 44 56 54 81 55 136 1 67 -19 115 -49 115 -26 0
-86 -39 -120 -78 -20 -23 -24 -38 -25 -93 0 -110 -6 -126 -59 -154 -69 -38
-110 -108 -112 -195 l-1 -35 -10 40 c-5 22 -8 66 -6 97 4 50 10 64 53 120 46
58 50 66 50 118 0 99 -60 160 -159 160 -26 0 -81 -13 -127 -30 -279 -102 -511
-84 -1508 116 -391 78 -407 83 -531 164 -127 82 -235 141 -310 169 -65 24
-172 42 -183 31 -5 -4 14 -23 40 -43 82 -60 148 -137 171 -200 24 -63 28 -130
11 -174 -13 -34 -64 -90 -101 -109 -27 -14 -38 -8 -18 12 5 5 12 34 15 64 6
48 3 62 -22 110 -22 43 -38 60 -73 78 -56 28 -74 24 -199 -36 -115 -55 -191
-64 -322 -37 -142 28 -401 119 -561 195 l-64 31 4 92 c2 51 7 95 11 99 3 4 44
-18 91 -48 162 -106 357 -187 516 -215 115 -20 301 6 335 47 23 28 14 120 -23
231 -32 97 -32 102 -13 98 393 -86 413 -94 745 -267 116 -61 286 -128 325
-128 24 0 -74 281 -147 420 -61 118 -163 269 -251 375 -28 33 -58 68 -66 79
-15 17 -13 17 24 -2 114 -57 298 -235 398 -385 85 -126 114 -144 177 -112 39
20 66 57 86 118 33 99 76 183 150 292 41 61 84 121 95 135 l21 25 24 -30 c37
-46 81 -160 99 -260 26 -136 17 -241 -34 -395 -23 -67 -41 -129 -41 -136 0
-47 82 35 127 127 49 100 82 227 93 363 31 361 49 488 93 649 12 44 69 118 81
106 3 -3 13 -34 22 -70 39 -146 9 -414 -61 -549 -22 -42 -1 -46 32 -6 111 136
160 293 169 546 7 195 20 288 56 395 62 184 133 296 323 509 111 125 182 178
303 227 164 66 222 122 222 216 0 61 -35 98 -105 113 -54 11 -56 11 -112 -24
-53 -32 -132 -66 -155 -66 -8 0 26 57 42 70 21 17 90 114 90 127 0 13 4 13 26
-2 15 -9 54 -25 88 -35 33 -10 90 -32 126 -49 74 -35 97 -37 163 -15 55 19 71
43 64 91 -14 85 -68 117 -194 115 -93 -2 -102 7 -51 47 45 36 128 40 188 8 40
-21 101 -85 112 -118 3 -8 13 -10 31 -5 20 5 33 21 54 64 25 51 36 61 108 104
44 25 111 65 148 89 81 50 67 53 247 -61 63 -41 171 -109 240 -152 68 -44 126
-81 128 -82 2 -2 -11 -44 -30 -92 -31 -86 -32 -95 -32 -234 0 -133 2 -152 28
-225 62 -179 182 -313 361 -403 97 -48 160 -63 295 -69 108 -5 136 -3 203 16
99 27 161 58 264 132 82 59 83 60 112 44 44 -22 135 -20 181 6 86 48 112 174
54 259 -17 25 -34 61 -38 80 -9 46 -52 110 -74 110 -9 0 -35 -11 -57 -25 -22
-13 -47 -25 -57 -25 -9 0 -69 41 -135 90 -65 50 -165 125 -223 167 -302 220
-384 290 -401 341 -19 57 -13 83 48 215 49 105 58 132 61 193 5 82 -15 133
-68 178 -55 46 -169 31 -197 -26 -30 -62 -25 -93 24 -152 34 -40 26 -77 -31
-163 -75 -114 -71 -110 -103 -87 -16 11 -59 42 -98 69 -210 144 -237 167 -230
189 20 63 17 124 -8 157 -7 9 -24 19 -39 22 -25 7 -30 3 -52 -40 -36 -70 -86
-138 -129 -171 -36 -29 -231 -112 -262 -112 -8 0 -15 6 -15 13 1 25 30 48 117
91 l91 45 -9 42 c-5 22 -16 54 -25 70 -15 30 -68 69 -92 69 -8 0 -39 -24 -70
-53 -80 -75 -144 -127 -155 -127 -17 0 1 96 27 148 27 54 64 88 146 135 57 34
59 37 114 160 27 61 48 90 98 136 59 56 63 63 63 103 0 50 -20 85 -69 123 -45
34 -129 45 -174 21 -41 -21 -44 -27 -30 -64 11 -29 9 -35 -27 -87 -21 -31 -47
-62 -57 -69 -17 -12 -16 -16 26 -47 54 -41 71 -74 57 -112 -17 -45 -54 -61
-155 -65 l-92 -4 -17 -42 c-28 -66 -116 -181 -130 -167 -12 12 -1 89 28 184
10 31 16 60 13 62 -8 9 -109 25 -152 25 -47 0 -136 -48 -193 -102 -34 -33 -35
-48 -2 -48 18 0 18 -1 2 -42 -21 -55 -73 -135 -112 -172 l-31 -30 0 30 c0 16
-7 38 -15 48 -8 11 -15 39 -15 63 0 33 7 50 30 76 33 38 38 57 15 57 -46 0
-131 70 -200 163 -15 20 -34 37 -41 37 -19 0 -23 -27 -26 -170 -3 -109 -7
-133 -30 -190 -15 -35 -26 -66 -23 -68 2 -2 34 -8 72 -12 71 -9 169 -41 212
-68 21 -15 23 -21 19 -77 -3 -34 -11 -72 -19 -86 -13 -24 -13 -23 -27 26 -8
28 -22 58 -31 69 -53 60 -198 83 -243 38 l-23 -22 20 -36 c11 -20 39 -56 62
-80 56 -56 63 -77 63 -185 0 -84 -1 -89 -19 -78 -11 8 -24 39 -36 87 -14 60
-25 84 -55 116 -36 39 -41 41 -97 41 -102 0 -139 -42 -204 -227 -27 -74 -54
-132 -81 -168 -50 -67 -463 -482 -641 -644 -243 -221 -433 -356 -502 -356 -57
0 -90 -20 -158 -95 -77 -85 -184 -159 -339 -236 -60 -30 -108 -56 -108 -59 0
-3 32 -32 70 -65 136 -113 261 -269 337 -420 25 -49 23 -48 -93 66 -259 255
-386 348 -664 490 l-85 44 50 6 c215 27 357 137 410 317 9 31 -3 28 -63 -17
-91 -69 -222 -104 -348 -95 -33 3 -142 23 -244 44 -102 22 -272 51 -379 65
-382 49 -507 83 -639 174 -111 76 -212 195 -212 248 0 71 244 108 410 62 105
-29 200 -75 320 -156 155 -104 163 -107 255 -108 68 0 89 4 136 28 31 15 77
46 103 68 54 48 56 61 25 181 -27 105 -22 149 35 291 59 145 83 257 57 257 -5
0 -32 -30 -61 -67 l-53 -68 7 43 c4 26 2 42 -4 42 -5 0 -10 7 -10 16 0 26 -17
6 -59 -70 -22 -41 -45 -78 -51 -81 -6 -4 -10 19 -10 64 0 38 -4 72 -10 76 -5
3 -34 -30 -64 -73 -86 -123 -90 -124 -82 -22 6 78 -2 152 -19 168 -8 8 -36
-23 -120 -132 -52 -66 -106 -116 -129 -116 -3 0 -7 21 -7 48 -2 82 -12 107
-38 104 -13 -1 -35 -11 -50 -21 -14 -10 -36 -21 -48 -25 -18 -6 -23 -1 -33 31
-7 21 -19 46 -28 56 -20 22 -77 22 -122 -1 -28 -14 -36 -26 -45 -62 -14 -59
-36 -62 -120 -15 -86 48 -164 126 -200 198 -27 55 -29 70 -36 235 -4 98 -11
194 -15 216 -7 38 -7 38 17 25 16 -9 56 -13 124 -12 115 2 147 -9 186 -65 33
-47 46 -89 55 -175 7 -77 17 -87 94 -108 38 -10 50 -9 75 3 28 15 32 14 76 -8
74 -39 99 -15 99 96 0 32 4 61 9 64 13 9 90 -63 110 -103 10 -20 31 -67 46
-106 15 -38 31 -74 35 -79 13 -13 62 73 81 142 10 35 19 92 21 127 2 36 6 65
9 65 12 0 64 -67 91 -119 16 -28 32 -51 36 -51 12 0 33 72 39 137 3 29 9 53
13 53 8 0 76 -145 86 -182 14 -61 55 -20 77 76 l13 59 26 -61 c15 -33 30 -77
34 -96 3 -20 12 -36 19 -36 35 0 60 148 45 261 -14 98 -29 144 -76 219 -20 32
-42 75 -49 97 -16 45 -19 124 -6 171 9 30 8 32 -17 32 -40 0 -91 36 -108 75
-22 52 -17 175 10 282 l24 92 -22 19 c-11 11 -62 40 -112 66 -119 61 -131 74
-116 125 19 63 15 148 -10 198 -12 24 -54 79 -94 122 -60 64 -70 80 -62 95 10
19 6 129 -6 156 -5 12 11 23 71 48 125 51 274 156 383 268 114 119 174 198
373 494 83 124 175 257 204 297 29 40 53 76 53 82 0 15 -87 87 -170 143 -103
68 -317 171 -420 202 -168 49 -348 76 -520 75 l-85 0 45 -41 c210 -190 461
-379 587 -442 74 -37 204 -76 257 -76 22 0 27 -3 19 -11 -6 -6 -46 -13 -90
-16 -61 -4 -97 -1 -160 16 -131 34 -223 84 -412 226 -330 246 -479 334 -691
407 -75 25 -236 68 -259 68 -4 0 -13 -24 -20 -54 -12 -53 -41 -107 -116 -212
-45 -64 -49 -103 -20 -184 9 -25 20 -67 25 -95 10 -60 0 -82 -75 -175 -62 -76
-253 -284 -264 -288 -5 -1 18 64 51 145 103 260 102 248 36 423 -47 122 -47
163 -2 270 19 46 28 88 32 146 l4 81 -33 6 c-42 8 -479 17 -534 11z m325 -233
c67 -9 57 -12 -133 -41 -141 -22 -269 -51 -414 -95 l-81 -25 -7 -40 c-4 -23
-12 -88 -19 -146 l-11 -105 -47 71 c-34 51 -49 86 -54 121 -4 28 -12 49 -19
49 -48 0 -289 -105 -405 -177 -235 -146 -397 -298 -608 -571 l-95 -124 49 -71
c44 -64 54 -74 99 -88 45 -14 53 -21 86 -79 20 -35 57 -90 82 -122 26 -32 43
-58 39 -58 -13 0 -106 67 -152 110 -41 38 -95 70 -118 70 -5 0 -7 -11 -4 -25
2 -14 1 -25 -2 -25 -4 0 -43 29 -87 65 -45 36 -85 65 -89 65 -4 0 -10 -6 -13
-14 -3 -8 -62 -81 -130 -163 -118 -140 -250 -276 -319 -324 -27 -20 -29 -20
-20 -3 6 11 20 28 32 39 48 43 186 234 380 525 226 339 303 445 413 570 275
312 685 525 1142 595 55 8 118 16 140 18 74 7 310 5 365 -2z m1311 -433 l39
-21 -42 -76 c-23 -42 -68 -123 -101 -181 -111 -193 -130 -207 -67 -51 22 56
40 114 40 129 0 34 70 222 83 222 5 0 27 -10 48 -22z m-982 -417 c23 -15 14
-94 -20 -183 -34 -88 -49 -105 -49 -55 0 19 -5 58 -10 87 -10 51 -9 56 22 107
34 57 35 57 57 44z m691 -620 l45 -7 -60 -8 c-115 -15 -341 -66 -445 -101
-101 -33 -103 -34 -50 -30 147 12 667 16 693 6 40 -16 33 -31 -16 -31 -97 0
-431 -53 -689 -110 -496 -108 -1092 -315 -1546 -537 -74 -35 -136 -63 -138
-60 -7 6 211 159 331 232 133 80 488 258 678 339 76 32 136 61 134 63 -6 5
-289 -55 -407 -87 -221 -61 -476 -149 -664 -229 -5 -2 -6 1 -3 6 22 36 409
237 608 317 314 125 669 213 964 239 79 7 521 5 565 -2z m313 -409 c59 -61
105 -117 117 -144 18 -42 19 -49 5 -94 -20 -67 -19 -116 4 -145 10 -14 60 -49
110 -78 l91 -54 -24 -31 c-39 -52 -68 -116 -98 -220 -46 -160 -36 -240 36
-304 46 -40 78 -41 119 -1 30 29 84 59 106 59 5 0 9 -33 8 -74 -1 -62 3 -82
26 -126 43 -83 34 -134 -18 -100 -32 21 -70 26 -80 10 -4 -6 -23 0 -49 15 -24
14 -45 25 -48 25 -3 0 -9 -20 -12 -44 -18 -119 -83 -93 -199 78 l-62 91 -6
-55 c-10 -74 -31 -160 -39 -160 -4 0 -22 35 -39 79 -33 81 -112 184 -151 196
-55 17 10 36 85 25 51 -8 55 -2 23 27 -33 29 -82 43 -152 43 -67 0 -112 -18
-261 -104 -116 -67 -165 -61 -294 34 -104 77 -163 107 -236 121 -81 15 -146 5
-306 -47 -75 -24 -148 -44 -163 -44 -37 0 -110 44 -124 74 -11 24 -9 24 159
81 300 101 334 120 375 210 27 59 64 231 64 298 0 54 -38 131 -96 196 l-44 49
62 21 c279 90 767 188 949 190 l65 1 97 -98z m-1529 -279 c-23 -158 -61 -251
-184 -448 -159 -253 -197 -343 -226 -530 -16 -97 -14 -282 2 -345 11 -42 -11
-10 -34 50 -46 117 -57 180 -56 315 0 119 3 138 32 222 38 113 88 213 183 369
82 135 133 245 149 321 11 51 12 52 68 72 31 10 61 20 65 20 5 1 5 -20 1 -46z
m-1235 -85 c-5 -18 -9 -62 -9 -97 0 -76 25 -135 75 -179 l33 -30 -36 -35 c-21
-20 -50 -41 -66 -47 -64 -24 -137 34 -161 128 l-13 47 -10 -40 c-6 -22 -12
-68 -13 -102 -1 -35 -5 -63 -9 -63 -10 0 -46 42 -60 70 -22 41 -16 133 11 182
25 44 137 138 212 176 55 28 57 28 46 -10z m427 -365 c-29 -86 -80 -187 -118
-236 -17 -21 -32 -37 -34 -35 -7 7 39 158 67 218 38 82 57 103 106 119 1 1 -9
-29 -21 -66z m-692 -145 c-5 -7 -42 -53 -84 -103 -86 -102 -182 -223 -195
-244 -11 -18 36 15 138 96 43 35 80 63 83 63 4 0 -5 -15 -18 -32 -34 -47 -124
-202 -201 -348 -60 -113 -70 -127 -111 -148 -55 -30 -164 -136 -208 -204 -29
-45 -33 -48 -36 -28 -9 59 61 324 119 448 85 184 222 332 438 471 65 42 88 51
75 29z m793 -163 c-9 -149 -63 -376 -130 -540 -11 -27 -55 -126 -97 -220 -180
-394 -248 -666 -251 -1000 l0 -110 -15 55 c-49 183 -54 481 -10 692 43 210 90
332 242 633 129 255 211 440 246 553 7 23 15 42 17 42 2 0 1 -47 -2 -105z
m-591 -120 c6 -132 -9 -415 -25 -442 -6 -12 -13 -8 -36 19 l-28 33 7 -35 c16
-82 18 -122 7 -165 -13 -51 -92 -225 -103 -225 -3 0 -20 35 -37 78 -17 42 -31
75 -32 72 0 -3 -4 -63 -8 -135 l-6 -130 -44 -65 c-25 -36 -57 -80 -73 -98
l-28 -33 -27 56 c-15 30 -30 55 -33 55 -7 0 -30 -168 -30 -216 0 -15 -22 -61
-51 -106 -28 -44 -57 -94 -64 -111 l-14 -32 0 50 c-1 66 15 216 35 343 16 95
21 109 66 174 33 47 48 80 47 97 -6 63 34 252 83 396 50 146 248 537 248 490
0 -50 -64 -369 -96 -480 -16 -53 19 12 69 132 49 114 127 352 127 386 0 7 5
30 12 52 l11 40 9 -35 c4 -19 11 -93 14 -165z m1729 -1 c23 -10 39 -28 49 -55
19 -46 20 -149 3 -199 -10 -29 -17 -36 -44 -38 -28 -3 -40 4 -83 47 -32 32
-63 78 -85 124 -50 107 -51 113 -18 125 44 16 141 14 178 -4z m-635 -189 c70
-116 144 -275 166 -360 17 -61 19 -102 16 -315 -2 -259 6 -360 39 -462 48
-149 147 -307 265 -422 l59 -58 -40 16 c-173 72 -336 241 -407 423 -51 132
-57 205 -44 543 10 245 3 301 -60 529 -26 91 -49 171 -51 178 -14 35 11 4 57
-72z m5659 36 l44 -38 -45 -59 c-54 -70 -93 -96 -125 -83 -35 13 -29 60 18
145 22 41 46 74 52 74 7 0 32 -18 56 -39z m258 -195 l58 -53 -70 -46 c-113
-73 -171 -91 -194 -63 -9 11 -9 21 1 45 22 52 112 170 130 171 9 0 43 -24 75
-54z m-5477 -163 c54 -94 81 -194 87 -317 2 -61 9 -123 15 -138 11 -30 70 -73
129 -94 22 -7 95 -22 163 -33 68 -11 136 -26 152 -32 27 -11 23 -13 -61 -25
-49 -7 -109 -18 -132 -24 -98 -24 -157 -11 -270 57 -117 71 -114 64 -107 277
7 189 -6 305 -41 390 -8 19 -15 39 -15 43 1 13 49 -49 80 -104z m6700 -112 c0
-20 -35 -90 -123 -246 -68 -120 -95 -187 -106 -268 -11 -81 3 -206 33 -294 14
-40 23 -73 20 -73 -3 0 -23 37 -44 83 -112 233 -63 456 166 769 38 51 54 60
54 29z m-12104 -102 c27 -25 32 -49 10 -49 -7 0 -49 -12 -92 -26 -283 -93
-499 -294 -578 -536 -81 -251 -53 -518 92 -875 12 -29 19 -53 17 -53 -9 0 -90
130 -123 195 -63 126 -122 360 -122 485 0 31 -4 50 -9 45 -27 -30 -81 -256
-82 -348 0 -44 -2 -48 -10 -28 -15 39 -12 286 4 371 33 168 120 341 237 473
79 89 303 263 410 317 125 64 200 73 246 29z m949 -124 c214 -149 234 -168
241 -220 l6 -40 -34 38 c-27 32 -42 40 -80 44 -40 5 -50 2 -72 -20 -32 -32
-35 -86 -6 -140 12 -22 15 -37 9 -37 -12 0 -153 96 -299 204 l-95 71 50 6 c67
8 81 15 98 52 28 60 11 90 -89 154 -16 10 -10 12 36 12 55 1 57 0 235 -124z
m3424 -200 c7 -347 103 -658 289 -936 90 -134 162 -215 351 -396 85 -81 182
-185 217 -231 67 -89 149 -239 190 -350 29 -76 27 -74 -42 23 -93 134 -218
250 -444 417 -96 71 -87 64 -192 153 -184 157 -328 386 -397 633 -45 161 -54
223 -54 382 0 153 8 217 44 351 27 99 35 88 38 -46z m7739 -43 c31 -22 103
-67 160 -101 221 -132 502 -334 502 -361 0 -17 -69 -79 -112 -101 -275 -140
-614 9 -702 310 -31 107 -16 222 35 274 34 33 37 32 117 -21z m-2208 -7 c-86
-226 -580 -810 -907 -1072 -57 -45 -160 -120 -230 -166 -71 -47 -154 -103
-185 -126 -54 -39 -57 -40 -48 -16 66 172 360 556 655 851 203 204 407 371
580 474 50 29 99 59 110 66 30 19 36 17 25 -11z m-6762 -90 c-17 -77 -22 -133
-22 -245 0 -150 3 -190 15 -190 4 0 9 7 13 15 3 8 9 15 14 15 5 0 -2 -55 -14
-122 -13 -68 -24 -141 -25 -163 0 -22 -4 -51 -8 -65 -7 -24 -8 -23 -20 15 -45
154 -53 509 -13 650 32 112 68 202 77 193 3 -2 -5 -49 -17 -103z m2587 -510
c96 -69 258 -147 371 -180 48 -14 187 -39 308 -55 297 -40 401 -70 561 -163
72 -41 187 -128 180 -135 -2 -3 -19 2 -37 11 -153 72 -303 112 -488 133 -412
44 -574 93 -765 229 -78 56 -235 215 -211 215 3 0 39 -25 81 -55z m-4237 -3
c22 -21 33 -44 42 -87 6 -33 20 -96 31 -140 58 -234 69 -325 45 -357 -18 -25
-21 -23 -24 20 -4 70 -63 120 -123 104 -43 -10 -70 -49 -76 -106 -12 -106 -40
-40 -102 241 -34 154 -47 231 -42 250 l8 28 21 -41 c27 -53 43 -66 95 -71 35
-4 47 -1 69 20 35 33 46 89 24 133 -19 41 -8 43 32 6z m1906 -177 c8 -111 33
-295 52 -390 14 -69 97 -341 108 -352 5 -6 219 69 356 125 117 47 154 63 320
139 134 62 156 67 201 53 85 -28 112 -77 143 -265 23 -133 38 -377 31 -480
-13 -170 -64 -333 -157 -495 -73 -126 -81 -126 -38 2 58 173 73 267 74 458 0
171 -12 291 -45 445 -11 50 -22 125 -26 168 -6 74 -14 94 -27 62 -6 -16 -93
-59 -246 -122 -103 -42 -74 -32 -850 -303 -265 -93 -451 -152 -457 -147 -8 8
26 115 39 124 7 4 141 51 298 104 157 53 284 100 283 105 -2 5 -18 47 -37 94
-74 181 -90 251 -89 400 0 97 5 153 17 200 10 36 23 86 29 112 6 26 12 46 13
45 1 -1 4 -38 8 -82z m1612 -10 c125 -134 338 -272 543 -350 178 -67 330 -98
666 -135 385 -42 574 -77 823 -151 226 -68 380 -142 527 -252 88 -66 227 -188
221 -194 -2 -2 -59 26 -127 63 -177 96 -273 139 -423 189 -225 75 -449 121
-706 144 -175 16 -176 16 -70 -35 199 -95 389 -244 475 -374 39 -59 115 -207
115 -224 0 -4 -31 29 -69 73 -106 120 -247 219 -469 330 -126 63 -256 113
-530 206 -445 150 -665 279 -870 509 -67 76 -141 186 -167 251 l-17 40 30 -35
c16 -19 38 -44 48 -55z m-1076 -815 c0 -26 -43 -91 -85 -128 -69 -61 -155 -65
-225 -12 l-24 18 34 16 c49 22 283 114 293 115 4 1 7 -4 7 -9z m1924 -172 c85
-45 229 -191 278 -283 66 -125 108 -315 108 -490 0 -70 -21 -318 -26 -312 -2
2 -22 92 -44 201 -44 212 -75 328 -117 441 -44 118 -143 305 -209 392 -35 46
-60 83 -57 83 3 0 33 -14 67 -32z m-4489 -121 c3 -21 20 -53 37 -72 34 -39 69
-45 118 -20 32 17 64 78 56 107 -8 31 14 19 28 -14 17 -41 11 -90 -37 -293
-20 -82 -41 -177 -48 -210 -9 -40 -22 -69 -40 -87 -38 -38 -49 -35 -34 8 24
70 -15 147 -80 159 -42 8 -93 -26 -113 -75 -26 -60 -38 -51 -33 25 2 29 40
205 83 385 18 76 50 153 55 133 1 -4 4 -25 8 -46z m1783 -214 c130 -283 195
-453 216 -570 7 -39 1 -40 -70 -16 -185 61 -309 247 -394 587 -33 130 -33 128
63 164 45 17 85 31 88 31 3 1 46 -88 97 -196z m-4748 -408 c0 -2 -19 -13 -43
-23 -91 -40 -147 -114 -161 -214 -6 -41 -1 -76 21 -152 10 -34 -18 -6 -38 38
-21 47 -25 130 -7 187 20 70 91 136 168 160 29 9 60 11 60 4z m6503 -43 c33
-34 157 -241 157 -261 0 -20 -90 -201 -100 -201 -9 0 -80 95 -149 198 l-42 63
17 77 c19 87 36 126 61 141 25 15 26 14 56 -17z m494 -210 c-13 -39 -26 -74
-29 -77 -3 -3 -22 14 -41 39 -37 44 -37 44 -23 84 8 22 22 52 32 67 l17 26 34
-33 34 -34 -24 -72z m-7017 92 c0 -26 8 -43 29 -65 35 -34 54 -36 99 -9 18 11
35 20 37 20 3 0 5 -20 5 -45 0 -37 -6 -52 -33 -82 -29 -31 -41 -37 -88 -40
-45 -4 -60 -1 -89 19 -70 47 -77 143 -15 205 42 42 55 42 55 -3z m6150 -186
c15 -19 18 -42 18 -127 1 -58 4 -129 8 -158 10 -79 -9 -67 -62 39 -42 83 -46
97 -41 143 5 53 34 125 50 125 5 0 17 -10 27 -22z m2017 -122 c284 -82 444
-168 618 -331 86 -81 131 -106 195 -107 87 0 146 47 210 170 17 34 36 59 41
56 13 -8 11 -135 -3 -175 -18 -55 -68 -110 -122 -135 -40 -19 -68 -24 -132
-24 -120 0 -167 27 -323 185 -109 111 -134 131 -205 164 -45 21 -135 53 -201
71 -180 49 -192 55 -221 111 l-24 49 24 0 c13 0 78 -15 143 -34z m-1268 -44
c17 -16 11 -37 -46 -161 l-33 -74 -20 20 c-10 12 -29 28 -41 36 l-21 15 25 55
c15 30 36 80 48 111 l21 58 26 -24 c14 -13 33 -29 41 -36z m3496 -42 c211 -17
341 -43 800 -156 105 -26 414 -123 428 -134 4 -4 -39 -18 -95 -31 -93 -22
-124 -24 -323 -23 -242 0 -343 12 -546 64 -143 36 -182 51 -279 106 -152 86
-167 89 -492 89 -157 0 -285 1 -284 2 1 2 47 16 102 32 220 65 372 76 689 51z
m-7801 -32 c-14 -63 -9 -91 22 -121 34 -34 83 -43 121 -23 32 16 63 56 63 81
0 8 4 15 9 15 11 0 21 -25 21 -52 0 -18 -41 -143 -68 -208 -6 -14 -36 -90 -67
-169 -49 -125 -80 -179 -106 -181 -3 0 -1 22 4 49 13 61 -3 105 -46 127 -60
32 -117 1 -156 -85 l-19 -44 -11 40 c-6 23 -9 47 -7 54 21 62 172 460 183 484
34 66 69 87 57 33z m4476 -66 c0 -13 -76 -202 -81 -202 -3 0 -24 13 -47 29
l-40 30 41 104 42 104 43 -30 c23 -17 42 -33 42 -35z m-7584 12 c71 -14 165
-34 209 -44 44 -10 112 -26 150 -35 39 -9 77 -20 85 -25 57 -35 -99 -14 -387
51 -147 34 -182 46 -186 61 -3 10 -4 18 -3 18 1 0 61 -12 132 -26z m7705 -86
c45 -25 45 -18 -17 -216 -3 -10 -12 -9 -41 3 -65 27 -66 29 -30 137 18 54 36
97 41 98 4 0 26 -10 47 -22z m257 -124 l62 -27 0 -57 c0 -31 3 -85 7 -120 l6
-62 -24 7 c-13 4 -54 20 -91 36 -37 16 -87 38 -112 48 l-44 20 28 91 c16 50
31 98 34 106 6 16 -4 19 134 -42z m2442 -40 c83 -17 240 -60 249 -69 3 -3 -53
-4 -124 -2 -72 2 -185 0 -251 -4 -133 -8 -184 -23 -245 -76 -30 -26 -179 -91
-179 -77 0 3 11 22 25 42 26 38 49 102 60 164 l6 37 82 3 c134 6 297 -2 377
-18z m-3204 -21 c24 -16 44 -32 44 -36 0 -13 -83 -187 -90 -187 -3 0 -23 18
-44 39 l-38 39 36 72 c20 40 36 79 36 86 0 19 7 18 56 -13z m1017 -23 c46 -10
114 -22 151 -26 60 -6 66 -9 66 -29 0 -25 -39 -228 -45 -234 -5 -5 -95 17
-187 46 l-78 24 -1 87 c0 48 -2 102 -5 120 -2 17 0 32 6 32 5 0 47 -9 93 -20z
m-7908 -230 c-67 -295 -227 -1013 -290 -1300 -31 -140 -61 -259 -65 -264 -5
-5 -16 8 -25 30 -30 73 -90 138 -167 185 -40 24 -77 46 -83 48 -19 8 -90 65
-143 115 -96 91 -168 215 -226 390 -32 96 -33 120 -2 46 39 -94 82 -173 128
-235 162 -219 312 -271 446 -154 43 38 51 26 22 -31 -20 -39 -20 -41 -2 -31
11 6 26 21 35 34 21 33 68 182 122 392 26 99 63 234 82 300 19 66 69 237 110
380 70 243 90 302 98 293 2 -2 -16 -91 -40 -198z m8359 151 c29 -27 177 -233
176 -245 0 -12 -95 -9 -216 5 l-91 11 -7 61 c-8 82 -8 182 2 191 15 16 112 0
136 -23z m-1287 -16 c23 -14 43 -32 43 -40 0 -12 -66 -175 -75 -183 -3 -4 -87
40 -103 54 -2 1 10 33 27 71 16 38 35 81 40 96 13 33 14 33 68 2z m177 -101
c31 -14 56 -28 56 -31 0 -3 -13 -48 -30 -100 -16 -51 -30 -100 -30 -108 0 -12
-9 -11 -47 9 -95 48 -92 39 -48 155 21 55 39 101 40 101 2 0 28 -12 59 -26z
m-792 -70 c29 -31 53 -62 53 -69 0 -17 -92 -145 -105 -145 -11 0 -110 144
-110 161 0 9 97 107 107 109 1 0 26 -25 55 -56z m2473 -5 c149 -57 255 -145
315 -261 19 -38 41 -68 48 -68 15 0 150 53 322 126 118 50 267 96 282 88 12
-7 67 -258 79 -362 22 -183 -14 -402 -101 -621 -23 -57 -39 -105 -37 -108 10
-9 89 76 122 131 43 73 98 215 124 321 44 180 56 284 56 482 l0 192 125 3 c69
2 126 3 128 2 6 -3 -29 -275 -43 -329 -23 -88 -63 -170 -123 -254 l-53 -74 33
7 c74 15 156 96 248 246 97 159 227 299 328 353 l52 28 -25 -57 c-94 -212
-315 -600 -448 -786 -79 -111 -258 -304 -350 -376 -59 -48 -210 -142 -226
-142 -10 0 -30 193 -38 355 -6 120 9 384 28 504 5 35 37 144 70 244 33 99 58
182 55 184 -2 2 -43 -19 -92 -48 -198 -117 -454 -218 -575 -227 l-66 -4 -12
47 c-34 135 -173 318 -311 410 -49 33 -52 36 -23 30 18 -3 66 -19 108 -36z
m-1387 -63 c68 -31 134 -59 148 -62 13 -3 27 -10 30 -15 5 -8 23 -271 19 -277
-3 -4 -154 62 -286 125 -79 38 -119 63 -119 73 0 9 6 36 14 61 8 24 22 70 31
102 10 38 20 57 28 54 7 -3 67 -31 135 -61z m-899 -118 l52 -47 -52 -93 c-29
-51 -54 -95 -56 -97 -5 -7 -122 122 -123 134 0 6 18 31 40 55 22 25 48 57 57
73 10 15 20 26 24 25 3 -2 29 -24 58 -50z m-7685 -37 c11 -71 64 -197 118
-277 28 -41 48 -77 45 -80 -2 -3 -38 13 -78 34 l-73 38 -18 95 c-18 97 -24
276 -9 249 5 -8 11 -35 15 -59z m8976 4 c47 -15 86 -29 88 -30 3 -3 -77 -245
-83 -253 -2 -2 -26 6 -54 19 -38 16 -51 27 -51 43 0 11 -3 75 -7 140 -5 100
-4 119 8 114 8 -3 52 -18 99 -33z m200 -72 c1 -10 9 -78 19 -152 l18 -133 -32
5 c-17 3 -48 12 -68 20 l-36 16 24 73 c13 40 31 99 40 131 15 55 34 76 35 40z
m433 -8 c108 0 197 -2 197 -5 0 -10 -143 -246 -173 -287 -28 -37 -37 -42 -72
-42 -57 -1 -236 26 -245 36 -4 4 -13 69 -19 143 -7 74 -15 143 -17 152 -5 16
1 17 63 10 37 -4 157 -7 266 -7z m-1736 -36 c29 -23 56 -46 59 -51 8 -12 -86
-208 -99 -208 -5 0 -35 21 -66 47 -31 26 -58 48 -59 49 -5 3 101 204 107 204
2 0 28 -19 58 -41z m2089 19 c44 -30 81 -90 104 -169 11 -36 20 -71 20 -77 0
-14 -82 -38 -180 -51 -80 -11 -170 -18 -170 -13 0 2 27 48 59 103 33 56 75
130 93 165 18 35 35 64 37 64 3 0 19 -10 37 -22z m-2460 -317 c-25 -39 -49
-71 -53 -71 -10 0 -80 96 -111 152 l-23 41 46 47 46 47 70 -73 71 -73 -46 -70z
m585 143 l67 -45 -39 -110 c-21 -60 -39 -112 -39 -114 0 -13 -25 -1 -85 41
-37 26 -69 52 -71 58 -4 12 86 216 95 216 3 0 35 -21 72 -46z m265 -181 c109
-82 404 -371 404 -396 0 -32 -30 -30 -128 8 -90 36 -437 206 -455 224 -4 4 9
52 28 107 20 54 38 105 40 112 7 20 18 15 111 -55z m-671 -18 c33 -30 63 -55
67 -55 17 0 6 -30 -32 -96 -22 -38 -41 -73 -43 -78 -4 -12 -88 59 -129 108
l-27 33 47 71 c26 39 49 72 52 71 3 0 32 -24 65 -54z m-4260 -36 c0 -54 3 -63
28 -85 33 -28 83 -32 126 -9 25 12 48 47 63 95 4 11 9 7 19 -14 11 -24 10 -50
-10 -190 -27 -185 -56 -339 -72 -378 -19 -46 -36 -42 -42 10 -4 35 -12 53 -36
74 -67 60 -155 19 -169 -77 l-8 -50 -19 30 c-14 20 -19 44 -18 75 2 56 70 474
83 514 10 29 37 66 49 66 3 0 6 -27 6 -61z m3823 3 c23 -31 56 -73 73 -94 l31
-36 -48 -66 c-27 -36 -52 -66 -56 -66 -12 0 -55 62 -98 142 l-42 78 37 50 c20
27 42 50 48 49 7 0 31 -26 55 -57z m1887 -63 l133 -42 6 -36 c12 -76 9 -87
-46 -135 -29 -25 -55 -46 -58 -46 -15 0 -221 141 -226 155 -6 14 43 145 54
145 2 0 64 -19 137 -41z m-1214 -86 c43 -32 78 -63 79 -70 0 -11 -67 -173 -75
-182 -4 -3 -105 71 -172 126 -12 9 -6 25 34 97 26 47 50 86 52 86 2 0 39 -26
82 -57z m2279 45 c0 -52 -43 -128 -71 -128 -25 1 -174 89 -159 94 8 2 53 12
100 21 47 9 87 18 89 21 10 9 41 3 41 -8z m-315 -146 c72 -48 130 -94 130
-101 0 -19 -75 -56 -155 -76 -84 -21 -258 -45 -336 -45 l-61 0 -21 58 c-12 31
-27 81 -33 110 l-13 53 44 44 44 45 136 0 135 -1 130 -87z m-2784 15 c15 -23
39 -59 54 -79 l27 -37 -85 -104 c-103 -125 -115 -136 -127 -117 -11 17 -11 17
44 195 25 82 46 158 46 167 0 28 13 21 41 -25z m404 -39 l84 -71 -26 -47 c-14
-25 -36 -59 -48 -74 l-22 -28 -40 25 c-22 14 -63 47 -93 74 l-53 49 54 72 c29
40 55 72 57 72 2 0 41 -32 87 -72z m3107 -41 c21 -101 65 -321 79 -402 6 -33
13 -67 15 -76 3 -12 -8 -21 -37 -33 -148 -60 -432 -84 -563 -49 -38 10 -71 23
-72 28 -2 6 29 35 69 65 178 138 337 313 434 482 25 43 48 76 51 73 4 -3 14
-43 24 -88z m-2427 -7 c82 -51 403 -210 422 -210 24 0 13 -15 -76 -104 l-89
-89 -97 52 c-89 47 -263 152 -309 186 -18 14 -18 16 -1 62 32 83 66 153 73
149 4 -2 39 -23 77 -46z m-406 -163 l82 -59 -67 -126 c-78 -151 -163 -292
-175 -292 -12 0 -164 136 -181 162 -14 22 -11 29 64 143 44 66 98 151 120 188
36 60 43 66 58 55 10 -7 55 -39 99 -71z m-463 -2 c36 -30 79 -62 95 -70 16 -9
29 -18 29 -21 0 -9 -72 -107 -85 -116 -16 -12 -264 -9 -286 2 -10 6 -19 17
-19 24 0 12 186 236 196 236 3 0 35 -25 70 -55z m1497 -117 c14 -7 17 -22 17
-76 0 -37 3 -98 7 -136 l6 -69 -29 7 c-46 12 -237 85 -247 95 -6 6 25 47 79
106 83 89 91 95 119 89 16 -3 38 -10 48 -16z m-805 -27 c27 -16 109 -59 181
-96 72 -36 131 -70 131 -75 0 -19 -151 -81 -290 -119 -146 -40 -260 -64 -267
-57 -4 3 189 375 194 376 1 0 24 -13 51 -29z m1145 -41 c15 0 27 -5 27 -11 0
-15 -101 -138 -153 -186 -50 -46 -71 -53 -82 -26 -6 17 -24 191 -25 244 l0 26
103 -23 c56 -13 114 -24 130 -24z m275 -31 c86 -17 141 -82 98 -118 -25 -21
-179 -72 -271 -91 -166 -33 -168 -34 -156 -13 5 10 30 41 55 68 26 28 69 78
97 112 57 68 48 66 177 42z m-2473 -123 c35 -15 35 -15 36 -83 0 -37 2 -137 5
-220 10 -271 -21 -179 -77 227 -14 103 -16 97 36 76z m293 -48 c17 -5 32 -15
33 -21 2 -51 -3 -346 -7 -363 -5 -19 -15 -22 -86 -29 -44 -3 -82 -4 -85 -1 -7
7 -25 405 -19 422 4 11 20 12 68 8 35 -3 78 -10 96 -16z m1323 -17 c57 -21
144 -51 192 -66 78 -23 88 -29 85 -48 -4 -26 -16 -30 -282 -108 -66 -19 -76
-24 -62 -35 9 -6 43 -15 74 -19 31 -3 75 -11 97 -17 45 -12 53 -8 -81 -47 -53
-15 -83 -31 -115 -61 -40 -37 -42 -42 -27 -54 9 -7 60 -26 112 -42 53 -16 96
-34 96 -40 0 -6 -8 -18 -18 -27 -16 -14 -24 -15 -76 -3 -98 23 -306 109 -306
127 0 21 40 137 79 228 17 41 29 76 27 79 -9 8 -58 -52 -129 -158 -38 -58 -71
-107 -73 -109 -7 -8 -161 78 -206 117 -28 24 -79 57 -112 74 l-61 31 90 14
c225 32 407 94 540 182 17 11 35 20 41 20 6 1 58 -17 115 -38z m-1114 -113
c49 -34 90 -63 92 -65 7 -5 -65 -106 -111 -155 -28 -30 -53 -48 -67 -48 -22 0
-23 2 -17 68 3 37 7 111 8 164 2 54 4 98 5 98 2 0 42 -28 90 -62z m642 -384
c11 -9 -157 -259 -188 -278 -12 -8 -31 80 -38 180 -5 69 7 166 23 196 3 5 182
-82 203 -98z m-345 59 c-120 -285 -157 -465 -136 -665 11 -105 5 -193 -19
-255 -11 -31 -39 -156 -39 -179 0 -33 19 -9 51 66 19 44 39 78 44 77 10 -4 13
-16 61 -242 35 -166 38 -330 10 -452 -11 -46 -22 -83 -25 -83 -17 0 -186 307
-292 532 -126 268 -205 470 -259 668 -30 111 -29 117 40 185 33 32 61 57 64
54 2 -2 -4 -47 -15 -99 -20 -104 -24 -170 -10 -170 10 0 41 124 62 249 11 66
18 81 60 130 95 112 124 142 144 146 49 9 116 27 185 49 41 13 78 25 83 25 4
1 0 -16 -9 -36z m-1185 6 c17 -6 31 -14 31 -17 -1 -24 -35 -286 -64 -492 -34
-238 -36 -246 -63 -268 -59 -48 -56 -50 -103 61 -59 139 -90 239 -90 291 0
100 185 436 239 436 10 0 32 -5 50 -11z m-3236 -32 c-8 -40 22 -95 61 -114 70
-33 142 12 153 98 7 46 17 49 37 11 16 -31 126 -516 126 -556 0 -36 -14 -33
-39 8 -39 62 -106 86 -161 56 -45 -24 -59 -112 -28 -173 9 -17 8 -17 -21 -2
-17 8 -37 25 -45 38 -8 12 -31 96 -50 187 -20 91 -45 206 -56 255 -24 110 -25
137 -4 181 19 39 33 45 27 11z m3445 -22 c8 -8 6 -490 -2 -503 -13 -21 -166
-131 -166 -119 0 17 81 620 85 634 4 11 69 2 83 -12z m2608 -81 c311 -188 722
-372 1114 -499 148 -48 185 -64 242 -105 37 -27 87 -59 110 -71 24 -12 76 -45
117 -73 40 -28 101 -70 135 -94 33 -23 95 -56 136 -73 41 -16 108 -46 147 -66
40 -20 75 -34 79 -31 6 7 -31 142 -47 171 -7 13 -5 19 8 24 12 5 24 -3 42 -28
92 -122 224 -215 324 -225 l42 -5 -30 17 c-77 43 -162 123 -193 182 -18 33
-32 70 -32 82 0 18 4 21 28 16 145 -28 579 -75 837 -89 l214 -12 -280 -175
c-155 -96 -331 -206 -392 -243 -62 -37 -129 -79 -149 -93 -21 -13 -43 -24 -50
-24 -30 0 -205 96 -285 156 -115 87 -291 235 -417 352 -168 155 -286 225 -544
318 -229 84 -546 138 -915 159 -77 4 -120 11 -146 24 -36 19 -259 187 -336
255 l-40 34 -34 -31 c-121 -115 -293 -361 -399 -572 -53 -107 -192 -456 -192
-484 0 -6 -4 -11 -8 -11 -12 0 5 160 27 254 85 355 247 647 489 878 85 81 209
178 228 178 6 0 83 -43 170 -96z m-2445 -80 c21 -82 39 -154 39 -160 0 -12
-18 -33 -68 -78 l-32 -30 0 213 c0 156 3 212 12 209 6 -2 28 -71 49 -154z
m329 126 c0 -19 -134 -170 -151 -170 -5 0 -9 40 -9 89 l0 90 33 4 c17 2 53 5
80 5 41 2 47 -1 47 -18z m1042 -59 c37 -17 70 -35 73 -41 3 -6 -7 -22 -24 -36
-40 -33 -39 -49 4 -87 42 -37 43 -49 10 -71 -67 -44 -114 -128 -116 -206 0
-34 -1 -33 -21 20 -17 46 -21 80 -22 210 -1 151 8 255 22 246 4 -2 37 -18 74
-35z m-1273 -483 c11 -62 32 -201 46 -308 44 -329 118 -791 131 -811 28 -46
-161 92 -288 210 l-48 44 1 436 0 436 61 53 c33 28 64 52 68 52 4 0 17 -51 29
-112z m-726 -215 l17 -31 -48 -30 c-111 -69 -155 -93 -160 -88 -9 9 17 204 38
287 39 151 35 150 89 14 26 -66 55 -134 64 -152z m1695 -168 c17 -44 49 -125
72 -180 24 -55 48 -116 55 -135 7 -19 34 -87 60 -150 56 -137 156 -433 185
-546 11 -44 35 -153 53 -242 l33 -161 111 -55 c128 -65 195 -121 262 -220 83
-123 114 -195 167 -390 15 -54 17 -57 32 -42 13 13 18 46 22 166 6 163 14 191
47 143 11 -15 26 -43 33 -61 26 -65 35 -11 33 186 -2 162 -1 184 14 189 24 9
92 -70 142 -166 23 -44 45 -82 49 -85 4 -2 21 20 36 50 36 68 68 94 115 94 49
0 127 -40 176 -90 l39 -40 -49 -51 c-88 -91 -256 -230 -357 -296 -169 -111
-393 -206 -565 -239 -94 -19 -388 -24 -403 -8 -4 5 -3 88 3 185 9 146 8 213
-6 390 -33 420 -109 771 -264 1214 -175 499 -212 635 -219 800 l-4 100 48
-140 c27 -77 63 -176 80 -220z m-1218 -35 c0 -187 -1 -340 -4 -340 -7 0 -166
201 -203 256 l-34 51 16 114 c9 63 22 120 29 127 16 16 179 131 188 132 3 0 7
-153 8 -340z m4399 196 c61 -19 66 -23 69 -52 2 -19 -4 -39 -16 -53 l-18 -23
-40 20 c-21 11 -51 33 -65 49 -27 29 -59 78 -59 88 0 9 48 -2 129 -29z m-2044
-287 c100 -198 113 -230 93 -223 -69 22 -179 128 -226 218 -20 40 -26 65 -26
116 0 66 15 120 34 120 5 0 62 -104 125 -231z m682 181 c52 -23 184 -120 178
-130 -8 -12 -127 -81 -135 -78 -14 5 -200 182 -200 190 0 13 54 37 85 37 17 0
49 -8 72 -19z m-2592 -105 c94 -221 244 -507 374 -714 l53 -84 -17 -64 c-9
-34 -18 -63 -20 -63 -13 0 -288 140 -303 155 -3 2 -55 301 -66 380 -4 22 -13
81 -21 130 -15 92 -55 361 -55 372 0 14 11 -7 55 -112z m-823 13 l34 -62 -31
-185 c-48 -282 -78 -435 -85 -444 -11 -13 -106 190 -139 298 -28 91 -61 245
-61 287 0 10 38 39 98 76 53 33 106 67 117 76 11 8 23 16 27 16 3 0 21 -28 40
-62z m3876 22 c135 -35 242 -84 242 -111 0 -23 -67 -110 -87 -115 -25 -7 -64
16 -205 118 l-87 64 27 32 c14 18 28 32 30 32 2 0 38 -9 80 -20z m-611 -82
c54 -51 98 -97 98 -102 0 -5 -30 -22 -67 -37 -111 -45 -99 -48 -159 37 -30 42
-58 83 -64 92 -5 9 -16 22 -22 30 -7 7 -13 17 -13 21 0 8 95 49 117 50 6 1 56
-41 110 -91z m-244 -98 c42 -60 77 -111 77 -114 0 -7 -68 -24 -114 -28 l-38
-3 -59 114 c-33 62 -58 115 -57 117 3 2 59 14 108 23 3 0 40 -49 83 -109z
m3392 73 c-3 -10 -12 -45 -20 -78 -47 -215 -126 -471 -186 -603 -75 -167 -185
-299 -272 -328 -83 -28 -178 -4 -223 55 -7 9 -12 57 -13 109 -2 94 -2 94 21
87 13 -4 51 -9 85 -12 81 -7 133 18 207 97 86 93 188 320 236 527 11 48 18 57
83 107 77 59 93 66 82 39z m-2611 -95 c63 -45 112 -86 110 -90 -3 -5 -42 -33
-86 -63 -59 -39 -86 -52 -97 -45 -9 5 -58 51 -110 103 l-94 95 29 15 c16 8 47
29 68 46 22 18 46 29 53 27 7 -3 65 -42 127 -88z m-4573 -102 l-6 -179 -30
-17 c-132 -74 -309 -160 -328 -160 -33 0 -67 11 -67 21 0 5 9 9 19 9 11 0 33
12 50 26 40 33 50 85 26 129 -22 42 -54 58 -110 57 -41 0 -44 1 -35 19 6 10
21 25 33 33 29 19 452 245 453 243 1 -1 -1 -83 -5 -181z m5010 119 c14 -28 28
-69 31 -92 7 -51 31 -85 80 -113 l37 -21 -6 51 c-4 34 -2 50 6 50 6 0 11 -4
11 -10 0 -18 41 -33 64 -22 11 6 50 13 87 16 61 5 69 3 129 -31 36 -19 94 -57
129 -84 68 -51 311 -269 311 -279 0 -6 -106 -90 -114 -90 -23 0 -271 152 -314
193 l-54 50 -70 -6 -70 -6 -92 61 c-83 57 -309 219 -330 239 -9 8 22 56 71
109 13 14 23 29 23 33 0 5 10 7 23 5 15 -2 30 -19 48 -53z m-6460 -41 c94 -64
256 -182 315 -230 23 -18 16 -24 -26 -24 -51 0 -105 -22 -119 -48 -6 -12 -11
-39 -11 -62 0 -49 40 -96 90 -106 24 -5 28 -9 19 -20 -16 -20 -99 -18 -129 3
-14 9 -116 81 -228 160 -204 146 -232 173 -232 229 0 24 2 26 13 12 24 -29 62
-48 98 -48 52 0 67 8 85 42 22 42 20 76 -5 126 -21 41 -21 42 -2 42 10 0 70
-34 132 -76z m2406 -67 c34 -45 89 -113 122 -150 34 -37 62 -76 63 -85 6 -63
1 -602 -6 -602 -4 0 -36 17 -70 37 -141 84 -300 236 -291 277 9 41 74 393 91
499 10 59 21 107 24 107 3 0 33 -37 67 -83z m3361 -59 l104 -102 -55 -28 c-31
-15 -85 -39 -121 -52 l-66 -25 -25 32 c-65 85 -135 190 -130 196 8 8 167 79
180 80 6 1 57 -45 113 -101z m2552 -59 c-66 -196 -169 -351 -253 -378 -45 -15
-72 -10 -111 22 l-30 24 25 58 c13 32 44 78 70 104 52 53 321 273 327 267 2
-2 -11 -46 -28 -97z m-1987 -10 c61 -45 114 -84 117 -86 7 -7 -76 -78 -148
-125 l-63 -41 -102 99 c-56 54 -104 101 -107 103 -3 2 0 6 7 8 6 2 49 31 94
64 45 32 84 59 86 59 2 0 54 -37 116 -81z m-874 -64 c45 -60 77 -113 72 -118
-4 -4 -42 -11 -82 -14 -66 -5 -77 -3 -101 16 -28 22 -138 180 -138 198 0 11
151 42 162 34 4 -3 43 -55 87 -116z m595 -134 l99 -99 -80 -40 c-98 -50 -201
-92 -223 -92 -15 0 -129 142 -159 198 -10 20 -9 23 11 31 72 28 129 52 178 75
30 14 60 26 65 26 6 0 55 -45 109 -99z m574 -13 c40 -30 52 -45 52 -65 0 -55
77 -123 140 -123 21 0 66 -22 135 -64 l105 -63 -78 -55 c-42 -31 -88 -62 -102
-69 -14 -8 -33 -20 -42 -28 -15 -12 -21 -11 -40 2 -43 29 -143 132 -160 164
-21 41 -66 63 -132 67 -50 2 -58 6 -125 67 -39 35 -71 66 -71 69 0 3 26 24 58
47 31 24 77 63 101 87 l44 45 31 -21 c17 -12 55 -39 84 -60z m-3812 -79 c38
-31 104 -80 147 -109 43 -29 80 -58 82 -64 1 -6 24 -135 49 -286 26 -151 49
-283 52 -292 6 -19 -85 -128 -198 -236 -76 -74 -257 -222 -271 -222 -7 0 -3
264 9 517 l6 122 51 11 c75 15 89 26 52 40 -17 6 -47 18 -67 27 l-38 16 0 289
0 289 29 -23 c15 -13 59 -48 97 -79z m2810 -6 c21 -32 56 -82 77 -110 22 -29
37 -59 34 -67 -6 -16 -159 -77 -200 -79 -26 -2 -32 7 -97 131 -39 73 -70 134
-70 136 0 2 30 6 68 9 50 4 134 25 148 36 0 1 18 -25 40 -56z m-361 15 c1 -2
36 -70 78 -153 80 -158 79 -154 34 -207 l-22 -28 -115 87 c-128 96 -263 186
-387 257 -46 26 -83 50 -83 53 0 6 490 -4 495 -9z m1044 -156 c72 -65 81 -77
81 -109 0 -68 62 -152 113 -153 12 -1 47 -23 77 -51 52 -46 54 -50 36 -62 -42
-26 -308 -168 -310 -165 -2 2 -41 57 -88 123 -47 66 -95 139 -106 161 -29 57
-72 90 -127 98 -39 6 -49 13 -70 46 -14 22 -25 41 -25 44 0 2 48 23 108 46 59
24 132 55 162 71 30 15 58 27 62 26 4 -1 43 -35 87 -75z m-3057 -130 c48 -23
99 -47 113 -52 14 -5 25 -14 25 -19 0 -17 -90 -204 -122 -254 -17 -27 -34 -45
-38 -40 -16 17 -85 418 -71 410 3 -1 45 -22 93 -45z m-1340 -101 c10 -24 9
-201 -1 -201 -15 0 -69 88 -92 149 -12 31 -24 88 -26 126 l-5 70 58 -64 c33
-35 62 -71 66 -80z m3916 94 c12 -19 22 -39 22 -45 0 -5 5 -10 10 -10 6 0 8
-20 4 -54 -9 -75 7 -117 56 -145 21 -12 52 -38 68 -59 64 -83 123 -175 119
-185 -5 -12 -159 -80 -208 -92 -23 -6 -32 3 -106 107 -95 133 -252 426 -231
432 92 26 219 70 224 77 9 15 18 10 42 -26z m1907 -181 c-6 -43 -9 -46 -109
-113 -140 -94 -370 -220 -676 -369 -140 -68 -259 -126 -265 -129 -5 -3 -3 1 5
9 8 9 80 56 160 105 229 141 251 155 295 177 17 9 57 34 90 55 33 22 75 48 93
57 17 10 32 21 32 26 0 4 5 8 10 8 6 0 54 30 107 68 157 108 258 170 262 160
1 -5 0 -29 -4 -54z m-4115 -145 c-8 -69 -20 -113 -41 -155 -31 -61 -89 -143
-101 -144 -4 0 -5 28 -2 63 12 136 32 212 86 327 l53 114 9 -54 c5 -36 4 -89
-4 -151z m-1067 35 l37 -7 0 -151 c0 -182 -10 -347 -21 -341 -17 11 -105 154
-137 225 -25 54 -36 94 -40 142 -5 66 -4 68 31 103 36 36 56 41 130 29z m-922
-106 c16 -46 58 -141 93 -213 109 -220 114 -350 22 -551 l-33 -71 -58 -11
c-32 -7 -70 -12 -84 -13 l-26 -1 30 -13 c17 -8 39 -14 50 -15 40 -1 48 -14 31
-49 -19 -37 -19 -37 -138 -12 -51 11 -140 27 -198 36 -116 18 -246 49 -298 71
l-34 14 53 41 c75 59 205 192 266 273 105 142 198 324 256 508 17 53 33 95 35
93 2 -2 17 -41 33 -87z m5160 -23 c15 -28 28 -56 29 -63 0 -7 -26 -29 -57 -49
-64 -40 -75 -38 -105 19 -35 67 -30 86 31 119 30 16 59 28 64 26 5 -1 22 -25
38 -52z m876 -136 c-10 -50 -12 -53 -91 -104 -45 -29 -116 -72 -160 -94 -43
-23 -124 -68 -180 -100 -238 -137 -432 -230 -776 -373 -159 -66 -331 -130
-336 -125 -2 2 27 16 64 32 115 49 559 270 747 371 219 118 453 257 611 364
65 44 121 80 125 80 3 0 2 -23 -4 -51z m-3803 -74 c20 -76 20 -137 0 -206 -17
-56 -43 -109 -55 -109 -4 0 -10 18 -14 39 -4 22 -15 56 -25 76 -18 36 -18 38
0 93 43 135 63 183 71 175 4 -4 15 -35 23 -68z m2573 15 c18 -30 33 -58 33
-62 0 -4 -31 -24 -70 -43 l-70 -35 -14 22 c-8 13 -22 42 -31 66 -15 36 -15 45
-4 59 17 20 89 54 109 50 8 -1 30 -27 47 -57z m-4082 -74 c62 -42 220 -184
219 -197 -1 -5 -2 -29 -2 -54 -2 -41 -5 -46 -41 -65 -187 -95 -621 -229 -621
-191 0 6 25 109 56 228 32 120 62 237 67 261 6 23 13 42 16 42 3 0 39 -59 80
-130 40 -72 75 -130 78 -130 2 0 2 28 -2 63 -7 67 6 147 31 185 21 32 60 28
119 -12z m3722 -105 c30 -50 31 -56 17 -72 -15 -16 -113 -64 -119 -57 -1 2
-15 31 -30 66 -27 59 -27 64 -11 80 19 20 74 42 96 39 8 -1 30 -27 47 -56z
m1518 -103 c-4 -13 -13 -32 -20 -44 -12 -18 -241 -148 -430 -242 -72 -36 -145
-61 -145 -49 0 6 104 72 240 152 63 38 165 99 225 136 121 74 140 81 130 47z
m-3905 -368 c23 -12 50 -97 50 -154 -1 -23 -7 -74 -14 -113 -7 -40 -9 -73 -5
-73 9 0 99 70 164 128 80 72 90 76 126 61 l32 -13 -6 -71 c-11 -121 -7 -117
-164 -168 -148 -48 -315 -89 -455 -111 l-88 -13 0 31 c0 17 7 58 14 91 11 46
22 66 48 88 85 72 137 131 182 208 74 124 79 129 116 109z m-1280 -19 c0 -31
-227 -135 -320 -147 -39 -4 -234 27 -248 40 -2 2 6 22 18 45 l20 41 143 1
c117 1 199 7 375 28 6 0 12 -3 12 -8z m-1704 -32 c38 -12 119 -44 179 -73 61
-29 126 -59 145 -68 32 -15 33 -17 10 -17 -14 -1 -95 15 -180 35 -85 19 -182
36 -215 37 -111 2 -197 -59 -263 -188 -19 -38 -37 -64 -39 -58 -9 26 18 156
42 203 32 63 82 119 120 136 45 20 124 17 201 -7z m2360 -124 c-25 -60 -82
-149 -152 -236 -35 -44 -64 -85 -64 -89 0 -12 85 14 187 56 45 19 87 34 92 34
12 0 15 -71 5 -107 -6 -23 -7 -23 -213 -22 -113 0 -226 4 -251 7 l-45 7 14 78
13 79 52 32 c43 28 181 105 330 185 22 11 41 19 43 17 3 -2 -3 -21 -11 -41z
m2841 -179 c-29 -79 -61 -133 -138 -236 -53 -70 -101 -118 -263 -262 -41 -36
-41 -37 -41 -105 1 -73 17 -117 63 -165 40 -44 12 -33 -53 20 -102 82 -156
202 -122 269 9 17 69 67 149 123 147 105 321 270 382 363 20 31 39 57 41 57 3
0 -6 -29 -18 -64z m-2257 -340 c0 -8 -242 -84 -330 -105 -141 -33 -287 -59
-434 -76 -85 -10 -150 -23 -165 -33 -39 -24 -121 -93 -121 -101 0 -4 16 -15
37 -25 32 -15 34 -19 22 -32 -34 -34 -204 -78 -279 -72 l-45 3 44 42 c49 47
49 68 1 86 -17 6 -30 15 -30 19 0 4 21 19 48 32 26 13 58 33 71 43 l24 20
-174 6 c-168 6 -328 28 -461 62 -34 8 -64 18 -67 21 -3 2 47 1 110 -3 221 -15
829 -9 1014 10 205 22 481 61 608 86 97 20 127 24 127 17z m-3026 -75 c33 -6
60 -12 61 -13 4 -7 102 -341 142 -483 89 -313 184 -701 182 -742 0 -10 -29 66
-64 168 -118 349 -233 653 -356 942 -33 76 -59 141 -59 144 0 2 8 2 18 -1 9
-3 44 -10 76 -15z m1231 -301 c72 -23 146 -51 166 -61 41 -20 69 -70 69 -121
-1 -45 -38 -133 -89 -208 -23 -34 -41 -64 -39 -66 3 -2 69 29 149 69 216 109
357 134 463 82 l49 -24 41 28 c90 62 189 101 306 121 36 6 76 14 89 17 l25 6
-29 -49 c-120 -209 -315 -426 -485 -539 -312 -208 -597 -190 -907 59 -91 74
-202 200 -228 261 -23 53 -33 265 -16 341 13 56 49 109 85 125 12 5 66 7 121
5 83 -4 122 -12 230 -46z m4710 -90 c75 -190 134 -286 315 -510 68 -83 145
-191 319 -440 64 -93 163 -224 175 -232 8 -5 8 -8 0 -8 -18 0 -337 314 -468
460 -120 134 -318 377 -388 475 -20 28 -57 90 -83 139 l-47 89 58 -51 c32 -29
61 -52 64 -52 3 0 4 55 2 123 -3 80 -1 119 6 112 5 -5 27 -53 47 -105z m-5376
-37 c-1 -106 14 -183 60 -294 20 -52 54 -155 75 -229 20 -74 41 -151 47 -170
35 -124 144 -568 138 -564 -15 9 -196 468 -268 679 -56 165 -130 463 -137 549
l-6 71 38 17 c22 9 42 17 46 17 4 1 7 -34 7 -76z m4877 -170 c210 -224 426
-475 581 -673 208 -267 263 -340 244 -331 -23 13 -584 588 -766 786 -71 77
-155 167 -185 201 -31 34 -67 75 -79 92 l-22 32 63 0 63 0 101 -107z m3108
-1377 c23 -13 56 -45 74 -70 36 -49 87 -154 98 -200 l7 -29 -43 29 c-34 24
-57 56 -115 162 -40 73 -71 132 -68 132 4 0 25 -11 47 -24z m-496 -62 c80 -33
152 -128 248 -329 35 -73 64 -136 64 -141 0 -4 -17 8 -37 27 -21 20 -62 55
-91 78 -32 26 -68 70 -91 110 -50 84 -126 157 -175 166 -48 9 -87 1 -192 -40
-121 -48 -191 -54 -285 -26 -76 23 -133 54 -182 100 -62 57 -51 59 71 17 106
-37 126 -41 212 -40 98 0 95 0 255 68 70 30 147 34 203 10z m-6760 -201 c32
-4 86 5 169 26 118 29 125 29 173 15 68 -20 121 -73 164 -165 29 -61 81 -247
71 -257 -3 -3 -113 145 -163 219 -43 64 -95 107 -139 115 -22 4 -73 0 -129
-10 -78 -15 -99 -16 -131 -6 -47 16 -163 96 -163 114 0 3 23 -7 50 -21 28 -14
72 -28 98 -30z"/>
<path d="M9927 18885 c-21 -8 -57 -28 -80 -45 l-40 -30 79 1 c117 1 119 -1 77
-69 -50 -84 -65 -144 -53 -215 30 -188 172 -307 365 -307 82 0 148 18 207 57
21 14 40 24 43 21 9 -9 -66 -108 -110 -144 -24 -21 -43 -39 -42 -41 8 -7 107
31 149 58 109 70 178 185 178 298 0 46 4 62 20 76 56 51 80 145 57 228 -10 37
-27 34 -27 -5 0 -43 -33 -96 -68 -109 -67 -26 -170 12 -359 133 -138 88 -191
108 -283 107 -41 0 -92 -7 -113 -14z"/>
<path d="M12490 20450 c0 -139 68 -451 137 -625 92 -235 269 -521 478 -772
101 -121 315 -339 480 -491 130 -118 421 -364 451 -380 17 -9 30 -5 80 29 32
21 65 39 72 39 23 0 10 16 -86 99 -358 309 -685 649 -878 911 -141 192 -219
310 -205 310 5 0 11 -6 14 -13 20 -54 386 -464 594 -668 236 -230 559 -523
665 -603 44 -33 44 -33 182 35 55 27 108 49 118 49 10 0 18 4 18 9 0 5 -97
103 -215 218 -418 405 -609 632 -799 950 -66 109 -68 112 -119 129 -343 113
-680 379 -916 723 l-71 104 0 -53z"/>
<path d="M14885 18643 c-50 -9 -63 -14 -89 -34 -25 -20 -26 -22 -11 -45 23
-35 19 -55 -26 -124 -22 -34 -39 -63 -37 -65 2 -1 17 -10 35 -19 17 -8 61 -38
97 -66 36 -27 70 -50 76 -50 6 0 24 29 41 65 16 35 49 87 74 115 49 55 58 98
32 150 -20 40 -132 83 -192 73z"/>
<path d="M14651 18297 c-19 -24 -41 -86 -41 -117 0 -17 6 -45 13 -63 13 -31
19 -33 168 -74 218 -59 247 -62 293 -28 26 20 10 38 -68 77 -84 42 -141 82
-208 145 -74 69 -131 91 -157 60z"/>
<path d="M14525 18265 c-90 -55 -162 -85 -235 -95 -119 -17 -120 -17 -120 -46
0 -63 69 -141 151 -169 23 -8 43 -15 44 -15 2 0 24 17 49 38 28 23 74 48 116
61 39 13 70 25 70 27 0 1 -10 19 -21 39 -18 30 -21 47 -16 93 3 31 8 65 12 75
10 23 -2 21 -50 -8z"/>
<path d="M15402 18055 c-21 -15 -21 -17 -6 -41 16 -23 15 -27 0 -62 -19 -42
-63 -93 -116 -134 l-34 -27 46 -49 c26 -28 52 -67 59 -91 7 -22 16 -41 20 -41
10 0 37 36 71 93 16 28 49 60 86 85 69 47 87 81 79 149 -4 40 -12 54 -50 90
-40 37 -52 43 -89 43 -24 0 -54 -7 -66 -15z"/>
<path d="M15889 15876 c-72 -49 -92 -141 -80 -361 8 -142 3 -169 -38 -231 -17
-26 -31 -55 -31 -65 0 -16 -11 -18 -108 -18 -271 -1 -503 -71 -742 -225 -57
-36 -106 -66 -110 -66 -4 0 -15 9 -26 21 -10 11 -32 26 -49 34 -51 22 -90 70
-151 187 -106 203 -156 261 -238 273 -108 16 -198 -90 -167 -197 23 -77 76
-135 228 -249 88 -67 133 -118 133 -154 0 -9 12 -38 27 -64 l26 -48 -65 -76
c-150 -176 -266 -392 -333 -620 -20 -69 -21 -78 -7 -72 10 3 38 11 64 16 l47
10 31 102 c120 386 420 727 795 903 288 135 586 160 878 73 62 -18 248 -107
271 -130 13 -12 -6 -12 -20 0 -16 15 -167 74 -237 92 -97 26 -267 42 -372 36
-331 -21 -648 -171 -911 -432 -162 -161 -289 -353 -377 -571 l-25 -61 74 -7
c41 -4 95 -16 121 -27 25 -11 47 -18 49 -17 1 2 27 56 58 120 55 115 157 278
197 313 15 14 24 16 42 8 12 -6 33 -15 47 -20 15 -6 39 -35 60 -72 90 -158
116 -196 137 -199 46 -7 199 92 210 136 5 23 -6 37 -110 137 -107 101 -117
114 -117 147 0 20 -9 46 -21 61 l-20 27 73 47 c145 94 302 148 466 159 l92 7
0 -44 c0 -24 6 -56 14 -71 13 -25 11 -38 -30 -165 -24 -76 -52 -173 -61 -215
-10 -43 -21 -78 -25 -78 -15 0 -8 -28 22 -91 18 -39 30 -83 31 -112 1 -26 5
-47 9 -47 4 0 24 7 43 15 46 19 95 19 163 -1 29 -8 68 -14 86 -12 31 3 33 6
36 44 3 46 -3 54 -77 95 -28 15 -45 31 -43 40 26 106 34 169 40 305 7 156 8
161 35 194 15 18 31 46 34 62 7 34 13 33 118 -17 117 -55 267 -175 327 -263
l29 -42 -21 -28 c-12 -15 -28 -41 -35 -57 -10 -25 -27 -37 -81 -59 -89 -37
-149 -70 -201 -113 -42 -33 -43 -36 -43 -92 0 -31 6 -65 13 -74 13 -18 113
-57 145 -57 24 0 98 55 184 137 44 42 74 63 91 63 13 0 38 3 55 6 29 6 30 5
56 -73 48 -145 87 -406 72 -486 -6 -31 -11 -35 -45 -41 -21 -3 -44 -13 -51
-21 -17 -21 -27 -20 -153 19 -164 50 -156 50 -199 11 -21 -18 -38 -36 -38 -39
0 -3 16 -28 35 -55 25 -35 38 -64 42 -100 l6 -51 123 0 c116 0 124 -1 152 -25
17 -14 39 -25 50 -25 12 0 23 -4 26 -8 9 -15 -74 -243 -124 -344 -27 -53 -68
-127 -92 -163 -35 -55 -45 -65 -63 -60 -11 4 -35 10 -54 13 -31 6 -41 19 -112
137 -42 72 -82 135 -87 141 -6 6 -20 30 -32 53 -22 44 -65 71 -115 71 -25 0
-25 -1 -25 -76 0 -83 -15 -126 -56 -165 -34 -32 -30 -42 12 -24 l36 15 -17
-26 -16 -25 119 -123 c115 -118 118 -123 114 -159 -3 -26 1 -44 13 -57 16 -18
14 -21 -52 -69 -87 -65 -247 -145 -343 -171 -41 -11 -111 -23 -154 -27 l-79
-6 7 35 c5 26 2 40 -8 51 -13 13 -10 29 24 134 36 111 70 264 70 318 0 13 -8
26 -17 30 -55 21 -207 75 -213 75 -21 0 -51 -167 -60 -333 -9 -156 -11 -174
-31 -189 -11 -10 -25 -34 -30 -54 -10 -33 -13 -36 -41 -30 -87 17 -303 151
-387 239 l-34 36 26 21 c20 16 27 31 27 55 0 38 4 43 155 141 55 36 117 84
138 107 l39 42 -34 8 c-58 16 -138 1 -238 -43 -119 -52 -193 -62 -242 -32 -18
11 -48 36 -67 56 l-34 35 -43 -29 c-78 -54 -179 -59 -304 -15 -27 9 -40 10
-40 3 0 -22 71 -221 104 -293 l34 -74 -33 -25 c-22 -17 -36 -39 -44 -68 -13
-52 -47 -78 -171 -133 -149 -66 -172 -79 -226 -130 -86 -82 -94 -170 -23 -243
103 -105 242 -37 414 201 59 82 87 105 144 118 24 5 58 21 75 34 l33 25 52
-60 c134 -153 387 -313 580 -366 l62 -17 -1 -41 c0 -23 2 -72 6 -111 7 -75 10
-64 -88 -305 -74 -180 -22 -320 119 -320 67 0 113 33 144 102 23 50 24 64 24
253 0 201 6 236 38 264 9 7 21 37 28 67 10 44 16 54 33 55 12 0 30 2 41 4 11
1 57 6 102 9 110 9 263 48 392 102 126 53 213 103 328 190 46 35 90 64 97 64
7 0 21 -10 32 -21 10 -12 37 -30 60 -40 61 -28 84 -54 154 -177 85 -148 137
-214 192 -241 111 -53 222 5 222 118 0 98 -56 163 -273 317 -89 63 -121 101
-121 148 0 16 -13 44 -31 67 l-31 39 35 42 c155 193 271 432 352 721 15 54 17
57 46 57 17 0 62 7 100 17 78 19 88 17 274 -52 188 -69 299 -56 345 41 39 79
7 159 -84 207 -38 20 -52 21 -176 18 -273 -9 -273 -9 -312 21 -20 15 -56 32
-82 39 l-46 11 0 135 c0 265 -52 551 -126 694 -21 42 -17 62 18 84 17 11 46
40 63 65 33 49 98 87 215 129 144 52 232 109 256 168 30 70 4 161 -55 196 -56
33 -104 32 -178 -2 -55 -26 -88 -52 -173 -140 -120 -123 -157 -151 -197 -151
-15 0 -46 -11 -68 -23 l-40 -23 -55 77 c-64 89 -105 135 -180 203 -112 100
-296 207 -442 257 l-66 23 -7 46 c-18 122 -12 168 45 305 83 202 81 322 -5
375 -47 29 -120 27 -166 -4z m-1631 -563 c-6 -25 64 -127 133 -195 44 -42 79
-84 79 -93 0 -9 -4 -15 -9 -13 -24 9 -182 141 -205 171 -32 41 -44 100 -26
122 13 16 31 21 28 8z m2446 -1211 c95 -248 121 -583 66 -852 -71 -345 -210
-611 -439 -840 -170 -170 -345 -277 -546 -334 -128 -37 -148 -31 -29 9 197 65
353 164 514 326 423 427 585 1034 434 1630 -13 53 -27 104 -30 113 -3 9 -4 16
-1 16 3 0 17 -30 31 -68z"/>
<path d="M15950 13890 c0 -3 -2 -65 -3 -138 l-2 -132 27 0 c42 0 72 -15 87
-44 20 -36 34 -33 88 17 53 49 76 95 67 135 -20 81 -61 110 -181 131 -40 7
-74 18 -77 24 -2 7 -5 10 -6 7z"/>
<path d="M15997 13464 c-3 -4 3 -18 13 -33 37 -51 30 -114 -21 -190 -23 -34
-40 -63 -38 -65 2 -1 25 -17 51 -35 l47 -33 33 20 c71 44 111 138 88 209 -16
50 -44 79 -102 109 -50 25 -61 28 -71 18z"/>
</g>
</svg>
